<svg width="21" height="20" viewBox="0 0 21 20" fill="none" xmlns="http://www.w3.org/2000/svg">
<g clip-path="url(#clip0_519_131)">
<path d="M19.84 8.7L10.48 0.199997C10.3435 0.0749126 10.1651 0.00552368 9.97997 0.00552368C9.79485 0.00552368 9.61645 0.0749126 9.47997 0.199997L2.36997 6.82L2.12997 7.04L0.229973 8.81C0.0889083 8.95233 0.00976562 9.14461 0.00976562 9.345C0.00976562 9.54539 0.0889083 9.73767 0.229973 9.88C0.37562 10.0265 0.573417 10.1092 0.779972 10.11C0.969684 10.1131 1.15297 10.0413 1.28997 9.91L1.83997 9.38H1.97997V17.62C1.97733 17.8388 2.01799 18.056 2.09961 18.2591C2.18122 18.4621 2.30218 18.6471 2.45553 18.8032C2.60888 18.9593 2.79159 19.0836 2.99314 19.1689C3.1947 19.2541 3.41113 19.2987 3.62997 19.3H16.48C16.6988 19.2987 16.9152 19.2541 17.1168 19.1689C17.3184 19.0836 17.5011 18.9593 17.6544 18.8032C17.8078 18.6471 17.9287 18.4621 18.0103 18.2591C18.092 18.056 18.1326 17.8388 18.13 17.62V9.27H18.24L18.85 9.82C18.9906 9.96045 19.1812 10.0393 19.38 10.0393C19.5787 10.0393 19.7693 9.96045 19.91 9.82C19.9819 9.74335 20.0375 9.65279 20.0731 9.55387C20.1087 9.45496 20.1237 9.34979 20.1172 9.24486C20.1106 9.13993 20.0826 9.03745 20.035 8.94374C19.9873 8.85003 19.9209 8.76708 19.84 8.7ZM12.67 11.7C12.67 12.2202 12.5157 12.7286 12.2267 13.1611C11.9377 13.5936 11.527 13.9307 11.0464 14.1298C10.5659 14.3289 10.0371 14.3809 9.52689 14.2795C9.01672 14.178 8.54809 13.9275 8.18028 13.5597C7.81247 13.1919 7.56199 12.7233 7.46051 12.2131C7.35903 11.7029 7.41111 11.1741 7.61017 10.6935C7.80923 10.213 8.14632 9.80222 8.57882 9.51323C9.01132 9.22425 9.51981 9.07 10.04 9.07C10.3887 9.06733 10.7345 9.13406 11.0572 9.26629C11.3799 9.39852 11.6731 9.59362 11.9197 9.84023C12.1664 10.0868 12.3614 10.38 12.4937 10.7027C12.6259 11.0255 12.6926 11.3713 12.69 11.72L12.67 11.7Z" fill="#505458"/>
</g>
<defs>
<clipPath id="clip0_519_131">
<rect width="20.1" height="19.29" fill="white"/>
</clipPath>
</defs>
</svg>
